<svg width="56" height="56" viewBox="0 0 56 56" fill="none" xmlns="http://www.w3.org/2000/svg">
<rect x="55.5" y="0.5" width="55" height="55" transform="rotate(90 55.5 0.5)" fill="#141414"/>
<rect x="55.5" y="0.5" width="55" height="55" transform="rotate(90 55.5 0.5)" stroke="#EBEBEB"/>
<path fill-rule="evenodd" clip-rule="evenodd" d="M20.3415 32.7526C19.9259 32.3889 19.8837 31.7571 20.2474 31.3415L27.2474 23.3415C27.4373 23.1245 27.7116 23 28 23C28.2884 23 28.5627 23.1245 28.7526 23.3415L35.7526 31.3415C36.1163 31.7571 36.0741 32.3889 35.6585 32.7526C35.2429 33.1162 34.6111 33.0741 34.2474 32.6585L28 25.5186L21.7526 32.6585C21.3889 33.0741 20.7571 33.1162 20.3415 32.7526Z" fill="white"/>
</svg>
