<svg width="35" height="40" viewBox="0 0 35 40" fill="none" xmlns="http://www.w3.org/2000/svg">
<g clip-path="url(#clip0_14_1949)">
<path d="M4.99471 2.5C2.23981 2.5 0 4.74219 0 7.5V32.5C0 35.2578 2.23981 37.5 4.99471 37.5H12.6585V26.1094H8.53783V20H12.6585V17.3672C12.6585 10.5625 15.7333 7.40625 22.4138 7.40625C23.678 7.40625 25.8632 7.65625 26.7607 7.90625V13.4375C26.2925 13.3906 25.473 13.3594 24.4507 13.3594C21.1729 13.3594 19.9086 14.6016 19.9086 17.8281V20H26.4329L25.3091 26.1094H19.9008V37.5H29.9683C32.7231 37.5 34.963 35.2578 34.963 32.5V7.5C34.963 4.74219 32.7231 2.5 29.9683 2.5H4.99471Z" fill="white"/>
</g>
<defs>
<clipPath id="clip0_14_1949">
<rect width="34.963" height="40" fill="white"/>
</clipPath>
</defs>
</svg>
