<svg width="36" height="40" viewBox="0 0 36 40" fill="none" xmlns="http://www.w3.org/2000/svg">
<g clip-path="url(#clip0_14_1952)">
<path d="M5.95768 2.5C3.20278 2.5 0.962967 4.74219 0.962967 7.5V32.5C0.962967 35.2578 3.20278 37.5 5.95768 37.5H13.6214V26.1094H9.5008V20H13.6214V17.3672C13.6214 10.5625 16.6963 7.40625 23.3767 7.40625C24.641 7.40625 26.8262 7.65625 27.7237 7.90625V13.4375C27.2554 13.3906 26.436 13.3594 25.4136 13.3594C22.1358 13.3594 20.8716 14.6016 20.8716 17.8281V20H27.3959L26.2721 26.1094H20.8638V37.5H30.9312C33.6861 37.5 35.9259 35.2578 35.9259 32.5V7.5C35.9259 4.74219 33.6861 2.5 30.9312 2.5H5.95768Z" fill="#8BCBEA"/>
</g>
<defs>
<clipPath id="clip0_14_1952">
<rect width="34.963" height="40" fill="white" transform="translate(0.962967)"/>
</clipPath>
</defs>
</svg>
