<svg width="36" height="36" viewBox="0 0 36 36" fill="none" xmlns="http://www.w3.org/2000/svg">
<path d="M5.51323 0.500977C2.75834 0.500977 0.518524 2.74316 0.518524 5.50098V30.501C0.518524 33.2588 2.75834 35.501 5.51323 35.501H13.177V24.1104H9.05636V18.001H13.177V15.3682C13.177 8.56348 16.2519 5.40723 22.9323 5.40723C24.1966 5.40723 26.3818 5.65723 27.2792 5.90723V11.4385C26.811 11.3916 25.9915 11.3604 24.9692 11.3604C21.6914 11.3604 20.4271 12.6025 20.4271 15.8291V18.001H26.9515L25.8277 24.1104H20.4193V35.501H30.4868C33.2417 35.501 35.4815 33.2588 35.4815 30.501V5.50098C35.4815 2.74316 33.2417 0.500977 30.4868 0.500977H5.51323Z" fill="white"/>
</svg>
